<svg width="64" height="64" viewBox="0 0 64 64" fill="none" xmlns="http://www.w3.org/2000/svg">
  <defs>
    <linearGradient id="g" x1="8" y1="8" x2="56" y2="56" gradientUnits="userSpaceOnUse">
      <stop offset="0%" stop-color="#ff6b9d"/>
      <stop offset="55%" stop-color="#ff8b78"/>
      <stop offset="100%" stop-color="#ffb088"/>
    </linearGradient>
  </defs>
  <rect x="2" y="2" width="60" height="60" rx="18" fill="url(#g)"/>
  <path d="M32 14C22.5 14 15 20.5 15 28.5C15 32.5 16.8 36.1 19.6 38.7L17.5 45.8C17.2 47 18.4 48 19.5 47.4L26.3 43.8C28.1 44.3 30 44.6 32 44.6C41.5 44.6 49 38.1 49 30.1C49 22.1 41.5 14 32 14Z" fill="#fff"/>
  <circle cx="24" cy="29" r="2.5" fill="#ff6b9d"/>
  <circle cx="32" cy="29" r="2.5" fill="#ff8b78"/>
  <circle cx="40" cy="29" r="2.5" fill="#ffb088"/>
</svg>
